<svg width="30" height="30" viewBox="0 0 30 30" fill="none" xmlns="http://www.w3.org/2000/svg">
<g clip-path="url(#clip0_2521_5744)">
<path opacity="0.1" d="M15 30C23.2843 30 30 23.2843 30 15C30 6.71573 23.2843 0 15 0C6.71573 0 0 6.71573 0 15C0 23.2843 6.71573 30 15 30Z" fill="#E3A6E9"/>
<path d="M21 10.9876C18.78 10.7676 16.5467 10.6543 14.32 10.6543C13 10.6543 11.68 10.721 10.36 10.8543L9 10.9876" stroke="#F972E2" stroke-linecap="round" stroke-linejoin="round"/>
<path d="M12.666 10.314L12.8127 9.44065C12.9193 8.80732 12.9993 8.33398 14.126 8.33398H15.8727C16.9993 8.33398 17.086 8.83398 17.186 9.44732L17.3327 10.314" stroke="#F972E2" stroke-linecap="round" stroke-linejoin="round"/>
<path d="M19.5669 13.0938L19.1336 19.8071C19.0603 20.8537 19.0003 21.6671 17.1403 21.6671H12.8603C11.0003 21.6671 10.9403 20.8537 10.8669 19.8071L10.4336 13.0938" stroke="#F972E2" stroke-linecap="round" stroke-linejoin="round"/>
<path d="M13.8867 18H16.1067" stroke="#F972E2" stroke-linecap="round" stroke-linejoin="round"/>
<path d="M13.334 15.334H16.6673" stroke="#F972E2" stroke-linecap="round" stroke-linejoin="round"/>
</g>
<defs>
<clipPath id="clip0_2521_5744">
<rect width="30" height="30" fill="white"/>
</clipPath>
</defs>
</svg>
