<svg width="96" height="96" viewBox="0 0 96 96" fill="none" xmlns="http://www.w3.org/2000/svg">
<g opacity="0.4" filter="url(#filter0_f_2514_5339)">
<path d="M48 81C66.2254 81 81 66.2254 81 48C81 29.7746 66.2254 15 48 15C29.7746 15 15 29.7746 15 48C15 66.2254 29.7746 81 48 81Z" fill="#2EF335"/>
</g>
<path d="M48 76C66.2254 76 81 61.2254 81 43C81 24.7746 66.2254 10 48 10C29.7746 10 15 24.7746 15 43C15 61.2254 29.7746 76 48 76Z" fill="#35FA3C"/>
<path d="M61.0942 32.7864C60.5475 32.4931 59.4008 32.1864 57.8408 33.2798L55.8808 34.6664C55.7342 30.5198 53.9342 28.8931 49.5608 28.8931H41.5608C37.0008 28.8931 35.2275 30.6664 35.2275 35.2264V45.8931C35.2275 48.9597 36.8942 52.2264 41.5608 52.2264H49.5608C53.9342 52.2264 55.7342 50.5997 55.8808 46.4531L57.8408 47.8397C58.6675 48.4264 59.3875 48.6131 59.9608 48.6131C60.4542 48.6131 60.8408 48.4664 61.0942 48.3331C61.6408 48.0531 62.5608 47.2931 62.5608 45.3864V35.7331C62.5608 33.8264 61.6408 33.0664 61.0942 32.7864ZM47.5608 39.7331C46.1875 39.7331 45.0542 38.6131 45.0542 37.2264C45.0542 35.8398 46.1875 34.7198 47.5608 34.7198C48.9342 34.7198 50.0675 35.8398 50.0675 37.2264C50.0675 38.6131 48.9342 39.7331 47.5608 39.7331Z" fill="black"/>
<defs>
<filter id="filter0_f_2514_5339" x="0.875" y="0.875" width="94.25" height="94.25" filterUnits="userSpaceOnUse" color-interpolation-filters="sRGB">
<feFlood flood-opacity="0" result="BackgroundImageFix"/>
<feBlend mode="normal" in="SourceGraphic" in2="BackgroundImageFix" result="shape"/>
<feGaussianBlur stdDeviation="7.0625" result="effect1_foregroundBlur_2514_5339"/>
</filter>
</defs>
</svg>
