<svg width="96" height="96" viewBox="0 0 96 96" fill="none" xmlns="http://www.w3.org/2000/svg">
<g opacity="0.4" filter="url(#filter0_f_2514_5338)">
<path d="M48 81C66.2254 81 81 66.2254 81 48C81 29.7746 66.2254 15 48 15C29.7746 15 15 29.7746 15 48C15 66.2254 29.7746 81 48 81Z" fill="#EEA8FD"/>
</g>
<path d="M48 76C66.2254 76 81 61.2254 81 43C81 24.7746 66.2254 10 48 10C29.7746 10 15 24.7746 15 43C15 61.2254 29.7746 76 48 76Z" fill="#EEA8FD"/>
<path d="M40.3311 54.5077C39.287 54.5058 38.2698 54.1826 37.4226 53.5836C36.5754 52.9845 35.9408 52.1398 35.6081 51.1682L35.5614 51.0177C35.412 50.5588 35.3343 50.0803 35.3307 49.5986V40.6732L32.0958 51.2742C31.8978 52.0286 32.0093 52.8291 32.4063 53.5035C32.8033 54.178 33.4541 54.6725 34.2186 54.8808L54.8376 60.3017C55.095 60.3672 55.3524 60.3986 55.6057 60.3986C56.9338 60.3986 58.1473 59.5333 58.4873 58.2582L59.6887 54.5077H40.3311ZM43.9981 40.7622C45.4689 40.7622 46.665 39.588 46.665 38.1441C46.665 36.7001 45.4689 35.5259 43.9981 35.5259C42.5273 35.5259 41.3312 36.7001 41.3312 38.1441C41.3312 39.588 42.5273 40.7622 43.9981 40.7622Z" fill="black"/>
<path d="M60.6662 31.5991H40.6646C39.7808 31.6002 38.9335 31.9453 38.3086 32.5588C37.6836 33.1724 37.3321 34.0042 37.331 34.8718V49.2718C37.331 51.0758 38.8271 52.5446 40.6646 52.5446H60.6662C62.5037 52.5446 63.9998 51.0758 63.9998 49.2718V34.8718C63.9998 33.0679 62.5037 31.5991 60.6662 31.5991ZM40.6646 34.2173H60.6662C60.8431 34.2173 61.0126 34.2863 61.1377 34.409C61.2627 34.5318 61.333 34.6983 61.333 34.8718V44.1651L57.1206 39.3398C56.8979 39.0886 56.6232 38.8869 56.3149 38.7481C56.0066 38.6093 55.6717 38.5365 55.3325 38.5347C54.9921 38.5364 54.6563 38.6113 54.3485 38.754C54.0408 38.8967 53.7685 39.1038 53.551 39.3607L48.5986 45.1966L46.9851 43.6166C46.5463 43.1865 45.9517 42.9449 45.3316 42.9449C44.7116 42.9449 44.1169 43.1865 43.6782 43.6166L39.9979 47.2284V34.8718C39.9979 34.6983 40.0681 34.5318 40.1932 34.409C40.3182 34.2863 40.4878 34.2173 40.6646 34.2173Z" fill="black"/>
<defs>
<filter id="filter0_f_2514_5338" x="0.875" y="0.875" width="94.25" height="94.25" filterUnits="userSpaceOnUse" color-interpolation-filters="sRGB">
<feFlood flood-opacity="0" result="BackgroundImageFix"/>
<feBlend mode="normal" in="SourceGraphic" in2="BackgroundImageFix" result="shape"/>
<feGaussianBlur stdDeviation="7.0625" result="effect1_foregroundBlur_2514_5338"/>
</filter>
</defs>
</svg>
