<svg width="96" height="96" viewBox="0 0 96 96" fill="none" xmlns="http://www.w3.org/2000/svg">
<g clip-path="url(#clip0_2514_5337)">
<path d="M60.2 35.2268C59.6534 34.9335 58.5067 34.6268 56.9467 35.7202L54.9867 37.1068C54.84 32.9602 53.04 31.3335 48.6667 31.3335H40.6667C36.1067 31.3335 34.3334 33.1068 34.3334 37.6668V48.3335C34.3334 51.4002 36 54.6668 40.6667 54.6668H48.6667C53.04 54.6668 54.84 53.0402 54.9867 48.8935L56.9467 50.2802C57.7734 50.8668 58.4934 51.0535 59.0667 51.0535C59.56 51.0535 59.9467 50.9068 60.2 50.7735C60.7467 50.4935 61.6667 49.7335 61.6667 47.8268V38.1735C61.6667 36.2668 60.7467 35.5068 60.2 35.2268ZM46.6667 42.1735C45.2934 42.1735 44.16 41.0535 44.16 39.6668C44.16 38.2802 45.2934 37.1602 46.6667 37.1602C48.04 37.1602 49.1734 38.2802 49.1734 39.6668C49.1734 41.0535 48.04 42.1735 46.6667 42.1735Z" fill="white"/>
<g opacity="0.4" filter="url(#filter0_f_2514_5337)">
<path d="M48 81C66.2254 81 81 66.2254 81 48C81 29.7746 66.2254 15 48 15C29.7746 15 15 29.7746 15 48C15 66.2254 29.7746 81 48 81Z" fill="#56B8FF"/>
</g>
<path d="M48 76C66.2254 76 81 61.2254 81 43C81 24.7746 66.2254 10 48 10C29.7746 10 15 24.7746 15 43C15 61.2254 29.7746 76 48 76Z" fill="#56B8FF"/>
<path d="M63.1779 35.5928C62.2392 32.41 59.5845 29.7553 56.4018 28.8166C53.9817 28.1126 52.3097 28.1713 51.151 29.0367C49.7577 30.078 49.5963 31.9554 49.5963 33.2901V36.9421C49.5963 40.5502 51.239 42.3835 54.4657 42.3835H58.6751C59.9952 42.3835 61.8872 42.2222 62.9285 40.8288C63.8232 39.6848 63.8966 38.0128 63.1779 35.5928Z" fill="black"/>
<path d="M59.1313 44.9941C58.75 44.5541 58.1926 44.3048 57.6206 44.3048H52.3699C49.7885 44.3048 47.6911 42.2074 47.6911 39.626V34.3753C47.6911 33.8033 47.4418 33.2459 47.0018 32.8646C46.5765 32.4832 45.9898 32.3072 45.4324 32.3806C41.9857 32.8206 38.8177 34.7126 36.7496 37.558C34.6669 40.418 33.9042 43.9088 34.5643 47.3995C35.5176 52.4449 39.551 56.4783 44.6111 57.4317C45.4178 57.593 46.2244 57.6663 47.0311 57.6663C49.6858 57.6663 52.2526 56.845 54.4379 55.2463C57.2833 53.1783 59.1753 50.0102 59.6153 46.5635C59.6887 45.9915 59.5127 45.4195 59.1313 44.9941Z" fill="black"/>
</g>
<defs>
<filter id="filter0_f_2514_5337" x="0.875" y="0.875" width="94.25" height="94.25" filterUnits="userSpaceOnUse" color-interpolation-filters="sRGB">
<feFlood flood-opacity="0" result="BackgroundImageFix"/>
<feBlend mode="normal" in="SourceGraphic" in2="BackgroundImageFix" result="shape"/>
<feGaussianBlur stdDeviation="7.0625" result="effect1_foregroundBlur_2514_5337"/>
</filter>
<clipPath id="clip0_2514_5337">
<rect width="96" height="96" fill="white"/>
</clipPath>
</defs>
</svg>
