<svg width="131" height="115" viewBox="0 0 131 115" fill="none" xmlns="http://www.w3.org/2000/svg">
<g opacity="0.8">
<path fill-rule="evenodd" clip-rule="evenodd" d="M98.0005 24.5002H16.3334C14.1675 24.5002 12.0902 25.3606 10.5587 26.8922C9.02713 28.4237 8.16671 30.501 8.16671 32.6669V98.0006L29.7758 78.7762C30.4433 78.1111 31.3203 77.6973 32.258 77.6051C33.1957 77.5128 34.1365 77.7476 34.9208 78.2698L56.6443 92.7494L86.9428 62.4509C87.5484 61.8447 88.3293 61.4444 89.175 61.3066C90.0207 61.1689 90.8883 61.3006 91.655 61.6832L106.167 77.5838V32.6669C106.167 30.501 105.307 28.4237 103.775 26.8922C102.244 25.3606 100.166 24.5002 98.0005 24.5002ZM16.3334 16.3335C12.0015 16.3335 7.84706 18.0543 4.78395 21.1174C1.72084 24.1806 0 28.335 0 32.6669V98.0006C0 102.332 1.72084 106.487 4.78395 109.55C7.84706 112.613 12.0015 114.334 16.3334 114.334H98.0005C102.332 114.334 106.487 112.613 109.55 109.55C112.613 106.487 114.334 102.332 114.334 98.0006V32.6669C114.334 28.335 112.613 24.1806 109.55 21.1174C106.487 18.0543 102.332 16.3335 98.0005 16.3335H16.3334ZM49.0003 53.0837C49.0003 54.6924 48.6834 56.2853 48.0678 57.7716C47.4522 59.2578 46.5498 60.6083 45.4123 61.7458C44.2748 62.8833 42.9243 63.7856 41.4381 64.4013C39.9518 65.0169 38.3589 65.3337 36.7502 65.3337C35.1415 65.3337 33.5485 65.0169 32.0623 64.4013C30.576 63.7856 29.2256 62.8833 28.0881 61.7458C26.9506 60.6083 26.0482 59.2578 25.4326 57.7716C24.817 56.2853 24.5001 54.6924 24.5001 53.0837C24.5001 49.8348 25.7908 46.7189 28.0881 44.4216C30.3854 42.1242 33.5013 40.8336 36.7502 40.8336C39.9991 40.8336 43.115 42.1242 45.4123 44.4216C47.7096 46.7189 49.0003 49.8348 49.0003 53.0837Z" fill="white"/>
<path fill-rule="evenodd" clip-rule="evenodd" d="M32.6459 8.16671H114.313C116.479 8.16671 118.556 9.02713 120.088 10.5587C121.619 12.0902 122.48 14.1675 122.48 16.3334V81.6671C122.48 83.833 121.619 85.9103 120.088 87.4418C118.556 88.9734 116.479 89.8338 114.313 89.8338V98.0005C118.645 98.0005 122.799 96.2797 125.862 93.2166C128.926 90.1535 130.646 85.999 130.646 81.6671V16.3334C130.646 12.0015 128.926 7.84706 125.862 4.78395C122.799 1.72084 118.645 0 114.313 0H32.6459C28.314 0 24.1596 1.72084 21.0964 4.78395C18.0333 7.84706 16.3125 12.0015 16.3125 16.3334H24.4792C24.4792 14.1675 25.3396 12.0902 26.8712 10.5587C28.4027 9.02713 30.48 8.16671 32.6459 8.16671Z" fill="white"/>
</g>
</svg>
