<svg width="100" height="108" viewBox="0 0 100 108" fill="none" xmlns="http://www.w3.org/2000/svg">
<path d="M37.5 37.5V16.5625C37.5 13.2307 38.8235 10.0354 41.1795 7.67947C43.5354 5.32355 46.7307 4 50.0625 4H83.5625C86.8943 4 90.0896 5.32355 92.4455 7.67947C94.8015 10.0354 96.125 13.2307 96.125 16.5625V91.9375C96.125 95.2693 94.8015 98.4646 92.4455 100.821C90.0896 103.176 86.8943 104.5 83.5625 104.5H50.0625C46.7307 104.5 43.5354 103.176 41.1795 100.821C38.8235 98.4646 37.5 95.2693 37.5 91.9375V71M20.75 71L4 54.25M4 54.25L20.75 37.5M4 54.25H75.1875" stroke="black" stroke-width="7" stroke-linecap="round" stroke-linejoin="round"/>
</svg>
