<svg width="30" height="30" viewBox="0 0 30 30" fill="none" xmlns="http://www.w3.org/2000/svg">
<g clip-path="url(#clip0_2521_5906)">
<path opacity="0.1" d="M15 30C23.2843 30 30 23.2843 30 15C30 6.71573 23.2843 0 15 0C6.71573 0 0 6.71573 0 15C0 23.2843 6.71573 30 15 30Z" fill="#E3A6E9"/>
<mask id="mask0_2521_5906" style="mask-type:luminance" maskUnits="userSpaceOnUse" x="7" y="7" width="16" height="16">
<path d="M23 7H7V23H23V7Z" fill="white"/>
</mask>
<g mask="url(#mask0_2521_5906)">
<path d="M19.3865 16.9624C18.4535 16.9624 17.6183 17.388 17.0641 18.0551L13.4592 16.0084C13.5743 15.6847 13.633 15.3437 13.6329 15.0002C13.633 14.6567 13.5743 14.3157 13.4592 13.9921L17.0638 11.9449C17.618 12.6122 18.4533 13.038 19.3864 13.038C21.0506 13.038 22.4046 11.6835 22.4046 10.0185C22.4047 8.35406 21.0507 7 19.3865 7C17.722 7 16.3679 8.35406 16.3679 10.0184C16.3679 10.3719 16.4294 10.7112 16.5416 11.0268L12.9367 13.0741C12.3826 12.4071 11.5475 11.9816 10.6147 11.9816C8.95004 11.9816 7.5957 13.3357 7.5957 15.0001C7.5957 16.6645 8.95004 18.0186 10.6147 18.0186C11.5475 18.0186 12.3825 17.5931 12.9367 16.9262L16.5416 18.973C16.4265 19.2968 16.3677 19.6379 16.3678 19.9815C16.3678 21.6459 17.722 22.9999 19.3864 22.9999C21.0507 22.9999 22.4047 21.6458 22.4047 19.9815C22.4047 18.3168 21.0507 16.9624 19.3865 16.9624ZM19.3865 8.05626C20.4683 8.05626 21.3485 8.93648 21.3485 10.0184C21.3485 11.101 20.4683 11.9816 19.3865 11.9816C18.3045 11.9816 17.4242 11.101 17.4242 10.0184C17.4242 8.93648 18.3045 8.05626 19.3865 8.05626ZM10.6148 16.9624C9.53254 16.9624 8.65204 16.0821 8.65204 15.0002C8.65204 13.9182 9.53254 13.038 10.6148 13.038C11.6966 13.038 12.5767 13.9182 12.5767 15.0002C12.5767 16.0821 11.6965 16.9624 10.6148 16.9624ZM19.3865 21.9437C18.3045 21.9437 17.4242 21.0634 17.4242 19.9816C17.4242 18.8992 18.3045 18.0187 19.3865 18.0187C20.4683 18.0187 21.3485 18.8992 21.3485 19.9816C21.3485 21.0634 20.4683 21.9437 19.3865 21.9437Z" fill="#333F4E"/>
<mask id="mask1_2521_5906" style="mask-type:luminance" maskUnits="userSpaceOnUse" x="7" y="7" width="16" height="16">
<path d="M19.3865 16.9624C18.4535 16.9624 17.6183 17.388 17.0641 18.0551L13.4592 16.0084C13.5743 15.6847 13.633 15.3437 13.6329 15.0002C13.633 14.6567 13.5743 14.3157 13.4592 13.9921L17.0638 11.9449C17.618 12.6122 18.4533 13.038 19.3864 13.038C21.0506 13.038 22.4046 11.6835 22.4046 10.0185C22.4047 8.35406 21.0507 7 19.3865 7C17.722 7 16.3679 8.35406 16.3679 10.0184C16.3679 10.3719 16.4294 10.7112 16.5416 11.0268L12.9367 13.0741C12.3826 12.4071 11.5475 11.9816 10.6147 11.9816C8.95004 11.9816 7.5957 13.3357 7.5957 15.0001C7.5957 16.6645 8.95004 18.0186 10.6147 18.0186C11.5475 18.0186 12.3825 17.5931 12.9367 16.9262L16.5416 18.973C16.4265 19.2968 16.3677 19.6379 16.3678 19.9815C16.3678 21.6459 17.722 22.9999 19.3864 22.9999C21.0507 22.9999 22.4047 21.6458 22.4047 19.9815C22.4047 18.3168 21.0507 16.9624 19.3865 16.9624ZM19.3865 8.05626C20.4683 8.05626 21.3485 8.93648 21.3485 10.0184C21.3485 11.101 20.4683 11.9816 19.3865 11.9816C18.3045 11.9816 17.4242 11.101 17.4242 10.0184C17.4242 8.93648 18.3045 8.05626 19.3865 8.05626ZM10.6148 16.9624C9.53254 16.9624 8.65204 16.0821 8.65204 15.0002C8.65204 13.9182 9.53254 13.038 10.6148 13.038C11.6966 13.038 12.5767 13.9182 12.5767 15.0002C12.5767 16.0821 11.6965 16.9624 10.6148 16.9624ZM19.3865 21.9437C18.3045 21.9437 17.4242 21.0634 17.4242 19.9816C17.4242 18.8992 18.3045 18.0187 19.3865 18.0187C20.4683 18.0187 21.3485 18.8992 21.3485 19.9816C21.3485 21.0634 20.4683 21.9437 19.3865 21.9437Z" fill="white"/>
</mask>
<g mask="url(#mask1_2521_5906)">
<path d="M17.0636 18.0555L15.9511 20.0151L17.5915 20.9465L18.797 19.4954L17.0636 18.0555ZM13.4587 16.0088L11.3356 15.2537L10.7021 17.0349L12.3461 17.9683L13.4587 16.0088ZM13.6324 15.0006L11.379 14.9997V15.0016L13.6324 15.0006ZM13.4587 13.9925L12.3458 12.0331L10.7022 12.9666L11.3356 14.7476L13.4587 13.9925ZM17.0633 11.9453L18.797 10.5058L17.5915 9.05393L15.9505 9.98589L17.0633 11.9453ZM16.5411 11.0272L17.6539 12.9866L19.2974 12.0532L18.6643 10.2724L16.5411 11.0272ZM12.9362 13.0745L11.203 14.5144L12.4085 15.9656L14.049 15.0339L12.9362 13.0745ZM12.9362 16.9266L14.0488 14.9671L12.4084 14.0357L11.203 15.4866L12.9362 16.9266ZM16.5411 18.9734L18.6642 19.7287L19.2978 17.9474L17.6537 17.0139L16.5411 18.9734ZM16.3673 19.9819H18.6207V19.9808L16.3673 19.9819ZM19.386 14.7094C17.7521 14.7094 16.2924 15.4574 15.3303 16.6157L18.797 19.4954C18.9432 19.3194 19.1539 19.2162 19.386 19.2162V14.7094ZM18.1762 16.096L14.5712 14.0492L12.3461 17.9683L15.9511 20.0151L18.1762 16.096ZM15.5817 16.7639C15.7832 16.1975 15.886 15.6008 15.8857 14.9996L11.379 15.0016C11.3791 15.0875 11.3644 15.1728 11.3356 15.2537L15.5817 16.7639ZM15.8857 15.0015C15.886 14.4004 15.7832 13.8038 15.5817 13.2374L11.3356 14.7476C11.3644 14.8285 11.3791 14.9138 11.379 14.9997L15.8857 15.0015ZM14.5715 15.9519L18.1762 13.9047L15.9505 9.98589L12.3458 12.0331L14.5715 15.9519ZM15.3297 13.3848C16.2918 14.5435 17.7518 15.2917 19.3859 15.2917V10.785C19.1538 10.785 18.9431 10.6817 18.797 10.5058L15.3297 13.3848ZM19.3859 15.2917C22.2954 15.2917 24.6575 12.9275 24.6575 10.0189L20.1507 10.0187C20.1507 10.44 19.8048 10.785 19.3859 10.785V15.2917ZM24.6575 10.0189C24.6577 7.10997 22.2949 4.74707 19.386 4.74707V9.25379C19.8056 9.25379 20.1508 9.59881 20.1507 10.0187L24.6575 10.0189ZM19.386 4.74707C16.4771 4.74707 14.114 7.10989 14.114 10.0188H18.6208C18.6208 9.59909 18.9659 9.25379 19.386 9.25379V4.74707ZM14.114 10.0188C14.114 10.6358 14.2217 11.23 14.4179 11.782L18.6643 10.2724C18.6362 10.1932 18.6208 10.1089 18.6208 10.0188H14.114ZM15.4283 9.06778L11.8234 11.1151L14.049 15.0339L17.6539 12.9866L15.4283 9.06778ZM14.6695 11.6345C13.7073 10.4764 12.2477 9.72869 10.6142 9.72869V14.2354C10.8462 14.2354 11.0569 14.3386 11.203 14.5144L14.6695 11.6345ZM10.6142 9.72869C7.70538 9.72869 5.3418 12.0912 5.3418 15.0005H9.84853C9.84853 14.581 10.1937 14.2354 10.6142 14.2354V9.72869ZM5.3418 15.0005C5.3418 17.9098 7.70542 20.2724 10.6142 20.2724V15.7656C10.1936 15.7656 9.84853 15.42 9.84853 15.0005H5.3418ZM10.6142 20.2724C12.2477 20.2724 13.7073 19.5246 14.6694 18.3666L11.203 15.4866C11.0568 15.6625 10.8462 15.7656 10.6142 15.7656V20.2724ZM11.8236 18.8861L15.4285 20.933L17.6537 17.0139L14.0488 14.9671L11.8236 18.8861ZM14.4181 18.2182C14.2166 18.7847 14.1137 19.3816 14.114 19.9829L18.6207 19.9808C18.6207 19.8949 18.6354 19.8096 18.6642 19.7287L14.4181 18.2182ZM14.114 19.9829C14.114 22.8919 16.4771 25.2537 19.3859 25.2537V20.747C18.9659 20.747 18.6207 20.4017 18.6207 19.9819L14.114 19.9829ZM19.3859 25.2537C22.2948 25.2537 24.6575 22.8905 24.6575 19.9819L20.1508 19.9818C20.1508 20.4018 19.8055 20.747 19.3859 20.747V25.2537ZM24.6575 19.9819C24.6576 17.0732 22.2953 14.7094 19.386 14.7094V19.2162C19.8051 19.2162 20.1508 19.5611 20.1508 19.9818L24.6575 19.9819ZM19.386 10.31C19.2231 10.31 19.0946 10.1812 19.0946 10.0188H23.6013C23.6013 7.69263 21.7125 5.80333 19.386 5.80333V10.31ZM19.0946 10.0188C19.0946 9.85817 19.2221 9.72869 19.386 9.72869V14.2354C21.7136 14.2354 23.6013 12.3446 23.6013 10.0188H19.0946ZM19.386 9.72869C19.5493 9.72869 19.677 9.85781 19.677 10.0188H15.1703C15.1703 12.345 17.0586 14.2354 19.386 14.2354V9.72869ZM19.677 10.0188C19.677 10.1815 19.5483 10.31 19.386 10.31V5.80333C17.0596 5.80333 15.1703 7.69226 15.1703 10.0188H19.677ZM10.6143 14.7094C10.776 14.7094 10.9049 14.8374 10.9049 15.0006H6.39813C6.39813 17.3276 8.28808 19.2162 10.6143 19.2162V14.7094ZM10.9049 15.0006C10.9049 15.1637 10.776 15.2917 10.6143 15.2917V10.785C8.28808 10.785 6.39813 12.6735 6.39813 15.0006H10.9049ZM10.6143 15.2917C10.4512 15.2917 10.3228 15.1627 10.3228 15.0006H14.8296C14.8296 12.6744 12.941 10.785 10.6143 10.785V15.2917ZM10.3228 15.0006C10.3228 14.8383 10.4512 14.7094 10.6143 14.7094V19.2162C12.9409 19.2162 14.8296 17.3267 14.8296 15.0006H10.3228ZM19.386 19.6908C19.5484 19.6908 19.677 19.8192 19.677 19.982H15.1703C15.1703 22.3084 17.0596 24.1975 19.386 24.1975V19.6908ZM19.677 19.982C19.677 20.1435 19.5491 20.2724 19.386 20.2724V15.7657C17.0588 15.7657 15.1703 17.6558 15.1703 19.982H19.677ZM19.386 20.2724C19.2223 20.2724 19.0946 20.1431 19.0946 19.982H23.6013C23.6013 17.6561 21.7133 15.7657 19.386 15.7657V20.2724ZM19.0946 19.982C19.0946 19.8196 19.2231 19.6908 19.386 19.6908V24.1975C21.7126 24.1975 23.6013 22.3081 23.6013 19.982H19.0946Z" fill="#F972E3"/>
</g>
</g>
</g>
<defs>
<clipPath id="clip0_2521_5906">
<rect width="30" height="30" fill="white"/>
</clipPath>
</defs>
</svg>
