<svg width="24" height="17" viewBox="0 0 24 17" fill="none" xmlns="http://www.w3.org/2000/svg">
<g clip-path="url(#clip0_2533_5368)">
<path d="M16.8441 5.80722C16.2084 6.11935 15.6389 6.52278 15.0905 6.9672L14.1469 5.89434C14.8411 5.25425 15.6506 4.75346 16.5206 4.38543C14.76 1.28563 10.5019 0.47504 7.69407 2.6422C6.67454 3.4267 5.90063 4.60066 5.60298 6.15568L5.50923 6.64157L5.02173 6.72729C4.54407 6.81021 4.11751 6.92481 3.74345 7.07016C1.40907 7.96786 0.753758 10.5501 2.18204 12.5109C2.79329 13.3452 3.57235 14.1959 4.5947 14.3375H6.02391C6.01407 14.4773 6.00891 14.6179 6.00891 14.76C6.00891 15.102 6.03798 15.4369 6.09423 15.763H4.57173L4.48173 15.7551C3.05063 15.5744 1.87454 14.5155 1.0247 13.3457C-0.956711 10.6344 0.0187576 6.97978 3.2311 5.74154C3.56626 5.61156 3.92485 5.50302 4.30266 5.4159C4.73157 3.72298 5.64563 2.41952 6.82079 1.51483C10.4391 -1.27145 15.8709 -0.0839867 17.9433 4.00995C18.255 3.96104 18.5672 3.93635 18.877 3.94007C23.513 3.97408 25.3463 9.86576 22.9406 13.0396C21.9764 14.3109 20.4975 15.3927 18.9745 15.7439L18.8147 15.763H17.8861C17.9667 15.2923 17.9903 14.8138 17.9564 14.3375H18.735C19.867 14.0668 21.0745 13.1412 21.7927 12.1871C23.5017 9.92492 22.2886 5.38329 18.8672 5.36186C18.1988 5.35627 17.5027 5.51699 16.8441 5.80722ZM11.003 16.9999H12.998C13.4644 16.9999 13.8469 16.6197 13.8469 16.1562V13.4244H15.3019C15.6084 13.4114 15.8259 13.3108 15.952 13.1207C16.2928 12.6124 15.8274 12.1107 15.5044 11.7571C14.588 10.7574 13.0097 9.27738 12.5574 8.74817C12.2142 8.37176 11.7267 8.37176 11.3836 8.74817C10.9163 9.29042 9.28173 10.8804 8.41032 11.8526C8.10798 12.1913 7.73438 12.6525 8.04845 13.1207C8.17782 13.3108 8.39298 13.4114 8.69954 13.4244H10.1545V16.1562C10.1545 16.6146 10.5366 16.9999 11.003 16.9999Z" fill="white"/>
</g>
<defs>
<clipPath id="clip0_2533_5368">
<rect width="24" height="17" fill="white"/>
</clipPath>
</defs>
</svg>
